HIERARCHY
ROOT Hips
{
	OFFSET -0.001795 -0.223333 0.028219
	CHANNELS 6 Xposition Yposition Zposition Zrotation Yrotation Xrotation 
	JOINT LeftUpLeg
	{
		OFFSET 0.069520 -0.091406 -0.006815
		CHANNELS 3 Zrotation Yrotation Xrotation
		JOINT LeftLeg
		{
			OFFSET 0.034277 -0.375199 -0.004496
			CHANNELS 3 Zrotation Yrotation Xrotation
			JOINT LeftFoot
			{
				OFFSET -0.013596 -0.397961 -0.043693
				CHANNELS 3 Zrotation Yrotation Xrotation
				JOINT LeftToe
				{
					OFFSET 0.026358 -0.055791 0.119288
					CHANNELS 3 Zrotation Yrotation Xrotation
					End Site
					{
						OFFSET 0.000000 0.000000 0.000000
					}
				}
			}
		}
	}
	JOINT RightUpLeg
	{
		OFFSET -0.067670 -0.090522 -0.004320
		CHANNELS 3 Zrotation Yrotation Xrotation
		JOINT RightLeg
		{
			OFFSET -0.038290 -0.382569 -0.008850
			CHANNELS 3 Zrotation Yrotation Xrotation
			JOINT RightFoot
			{
				OFFSET 0.015774 -0.398415 -0.042312
				CHANNELS 3 Zrotation Yrotation Xrotation
				JOINT RightToe
				{
					OFFSET -0.025372 -0.048144 0.123348
					CHANNELS 3 Zrotation Yrotation Xrotation
					End Site
					{
						OFFSET 0.000000 0.000000 0.000000
					}
				}
			}
		}
	}
	JOINT Spine
	{
		OFFSET -0.002533 0.108963 -0.026696
		CHANNELS 3 Zrotation Yrotation Xrotation
		JOINT Spine1
		{
			OFFSET 0.005487 0.135180 0.001092
			CHANNELS 3 Zrotation Yrotation Xrotation
			JOINT Spine2
			{
				OFFSET 0.001457 0.052922 0.025425
				CHANNELS 3 Zrotation Yrotation Xrotation
				JOINT Neck
				{
					OFFSET -0.002778 0.213870 -0.042857
					CHANNELS 3 Zrotation Yrotation Xrotation
					JOINT Head
					{
						OFFSET 0.005152 0.064970 0.051349
						CHANNELS 3 Zrotation Yrotation Xrotation
						End Site
						{
							OFFSET 0.000000 0.000000 0.000000
						}
					}
				}
				JOINT LeftShoulder
				{
					OFFSET 0.078845 0.121749 -0.034090
					CHANNELS 3 Zrotation Yrotation Xrotation
					JOINT LeftArm
					{
						OFFSET 0.090977 0.030469 -0.008868
						CHANNELS 3 Zrotation Yrotation Xrotation
						JOINT LeftForeArm
						{
							OFFSET 0.259612 -0.012772 -0.027456
							CHANNELS 3 Zrotation Yrotation Xrotation
							JOINT LeftHand
							{
								OFFSET 0.249234 0.008986 -0.001171
								CHANNELS 3 Zrotation Yrotation Xrotation
								End Site
								{
									OFFSET 0.000000 0.000000 0.000000
								}
							}
						}
					}
				}
				JOINT RightShoulder
				{
					OFFSET -0.081759 0.118833 -0.038615
					CHANNELS 3 Zrotation Yrotation Xrotation
					JOINT RightArm
					{
						OFFSET -0.096012 0.032551 -0.009143
						CHANNELS 3 Zrotation Yrotation Xrotation
						JOINT RightForeArm
						{
							OFFSET -0.253742 -0.013329 -0.021401
							CHANNELS 3 Zrotation Yrotation Xrotation
							JOINT RightHand
							{
								OFFSET -0.255298 0.007772 -0.005559
								CHANNELS 3 Zrotation Yrotation Xrotation
								End Site
								{
									OFFSET 0.000000 0.000000 0.000000
								}
							}
						}
					}
				}
			}
		}
	}
}
MOTION
Frames: 13
Frame Time: 0.050000
0.016484 0.976643 0.052123 -0.160674 13.991202 8.611857 8.166093 -0.836286 -11.847569 -2.926877 0.236188 -1.590491 2.309601 13.333683 25.441901 0.000000 0.000000 0.000000 -7.640240 0.300361 -12.544113 2.887035 -0.403819 -1.523065 -0.220233 -7.027519 31.619083 0.000000 0.000000 0.000000 1.644260 -2.748277 28.577228 -7.571586 2.596932 -22.638927 -3.189794 5.148933 26.769918 12.324902 -5.367440 -18.636922 0.000000 0.000000 0.000000 -6.320323 -26.022292 8.753740 -47.081036 -39.824472 7.300986 16.550279 -18.786272 -2.184203 0.000000 0.000000 0.000000 19.257672 9.388670 7.634583 61.333614 42.142358 15.513108 -11.423918 32.888362 -0.611305 0.000000 0.000000 0.000000 
0.017507 0.977015 0.051839 -0.253335 13.945416 8.512458 8.085790 -0.824158 -11.587603 -2.903098 0.236765 -1.810185 2.555270 13.581154 25.271091 0.000000 0.000000 0.000000 -7.537037 0.311236 -12.289200 2.587549 -0.372002 -1.918163 0.185801 -6.582293 32.069685 0.000000 0.000000 0.000000 1.578760 -2.699909 28.388619 -7.909960 2.652283 -22.928208 -3.233844 4.920041 27.132509 11.696521 -4.968707 -18.644676 0.000000 0.000000 0.000000 -6.233520 -25.603532 8.614737 -47.767107 -40.214431 7.591661 16.488058 -17.847860 -2.041804 0.000000 0.000000 0.000000 18.991707 9.151222 7.396963 62.448050 42.186189 16.011474 -11.560919 33.115624 -0.620417 0.000000 0.000000 0.000000 
0.018366 0.977027 0.051877 -0.303206 13.976727 8.397664 7.972095 -0.822607 -11.512522 -2.721959 0.227042 -1.910812 2.633311 13.751449 25.627603 0.000000 0.000000 0.000000 -7.412473 0.320807 -12.131268 2.496973 -0.361090 -1.890329 -0.035632 -6.821621 31.857253 0.000000 0.000000 0.000000 1.489010 -2.640179 28.120602 -8.032327 2.694861 -22.710885 -3.447596 4.592881 27.265419 11.325642 -4.805544 -18.419943 0.000000 0.000000 0.000000 -6.100005 -25.283325 8.513074 -48.439315 -40.467430 7.863496 16.649095 -17.312206 -1.987143 0.000000 0.000000 0.000000 18.482400 8.923763 7.094211 63.694240 42.055090 16.519444 -11.695337 33.647949 -0.637692 0.000000 0.000000 0.000000 
0.019201 0.977022 0.052312 -0.445609 13.966014 8.222062 7.950452 -0.808315 -11.250903 -2.769015 0.230388 -1.995696 3.093532 14.241348 25.403528 0.000000 0.000000 0.000000 -7.133240 0.348851 -11.922220 2.385906 -0.347947 -1.893306 -0.364742 -7.228891 31.712803 0.000000 0.000000 0.000000 1.474145 -2.605076 27.890996 -8.256943 2.746930 -22.685862 -3.539042 4.158698 27.440711 10.687697 -4.529060 -17.975532 0.000000 0.000000 0.000000 -6.147928 -24.776413 8.372159 -49.260700 -40.712604 8.191522 16.733630 -16.836708 -1.919308 0.000000 0.000000 0.000000 18.346559 8.598400 6.784815 65.003083 41.809234 16.909363 -11.569488 33.705636 -0.587572 0.000000 0.000000 0.000000 
0.020114 0.976804 0.052982 -0.591436 13.919206 8.201755 8.028870 -0.803707 -11.219257 -2.859684 0.236399 -2.106264 3.488482 14.721390 25.594639 0.000000 0.000000 0.000000 -6.921816 0.374134 -11.907878 2.287422 -0.330877 -1.587819 -0.430699 -7.179863 30.887158 0.000000 0.000000 0.000000 1.564461 -2.573895 27.484192 -8.434200 2.794849 -22.531143 -3.639997 3.752301 27.379985 10.410223 -4.488936 -17.566158 0.000000 0.000000 0.000000 -6.397469 -24.558089 8.357236 -49.905921 -40.846163 8.474205 16.668337 -16.425961 -1.838668 0.000000 0.000000 0.000000 18.468312 8.389405 6.587306 65.808778 41.498266 17.011545 -11.628800 33.673576 -0.594009 0.000000 0.000000 0.000000 
0.021250 0.976485 0.053767 -0.733544 13.865656 8.222163 8.074720 -0.793798 -11.031837 -2.959566 0.243277 -2.331081 3.842333 15.063048 25.276470 0.000000 0.000000 0.000000 -6.792225 0.390900 -11.835621 2.332181 -0.334200 -1.464071 -0.550732 -7.222817 30.132630 0.000000 0.000000 0.000000 1.640052 -2.513142 26.891115 -8.455897 2.810076 -22.373996 -3.597087 3.297279 27.356948 10.067257 -4.307391 -17.609750 0.000000 0.000000 0.000000 -6.889153 -24.080762 8.266180 -50.710594 -40.946674 8.794927 16.674329 -15.976887 -1.762461 0.000000 0.000000 0.000000 18.931402 8.068793 6.384274 66.438868 41.431276 17.145910 -11.273572 32.617593 -0.497842 0.000000 0.000000 0.000000 
0.022356 0.975620 0.054499 -0.841201 13.775200 8.230500 8.085459 -0.784622 -10.861542 -2.999373 0.246833 -2.532855 4.156111 15.364063 24.991266 0.000000 0.000000 0.000000 -6.693805 0.405852 -11.893048 2.419761 -0.340486 -1.177255 -0.811807 -7.478715 29.413516 0.000000 0.000000 0.000000 1.891575 -2.491948 26.236099 -8.613323 2.849420 -22.256108 -3.525949 2.709295 27.591829 9.655184 -4.150807 -17.440636 0.000000 0.000000 0.000000 -7.282262 -23.493998 8.147722 -51.354662 -41.077458 9.068648 16.457773 -15.488376 -1.645567 0.000000 0.000000 0.000000 18.917929 7.911520 6.144015 67.116128 41.401209 17.359532 -11.210248 31.379505 -0.500087 0.000000 0.000000 0.000000 
0.023380 0.974923 0.055057 -0.954450 13.627208 8.188955 8.054375 -0.774876 -10.699210 -2.897648 0.243028 -2.635378 4.380643 15.570266 24.773313 0.000000 0.000000 0.000000 -6.650469 0.413738 -11.849744 2.499758 -0.349095 -1.109380 -0.827230 -7.470600 29.046160 0.000000 0.000000 0.000000 2.113512 -2.455975 25.571220 -8.719258 2.894285 -21.921836 -3.427034 2.412986 27.566476 9.239085 -3.960015 -17.196950 0.000000 0.000000 0.000000 -7.430092 -22.854050 7.950229 -52.174201 -41.198787 9.370396 16.234915 -15.340979 -1.580515 0.000000 0.000000 0.000000 18.974021 7.725440 5.958172 67.785832 41.390666 17.617820 -10.949102 30.238314 -0.446876 0.000000 0.000000 0.000000 
0.024221 0.974162 0.055254 -1.000263 13.624043 8.168147 7.973307 -0.767713 -10.498624 -2.799751 0.238633 -2.759253 4.402969 15.503932 24.193947 0.000000 0.000000 0.000000 -6.644979 0.412738 -11.723818 2.498938 -0.347849 -1.015272 -0.803772 -7.308811 28.256475 0.000000 0.000000 0.000000 2.325655 -2.456926 25.152078 -8.642910 2.872896 -21.977447 -3.245983 2.415398 27.765845 9.178555 -3.952926 -17.052278 0.000000 0.000000 0.000000 -7.721249 -22.478239 7.817346 -52.469410 -41.076728 9.370072 16.027494 -15.362896 -1.551186 0.000000 0.000000 0.000000 19.333976 7.646135 5.981926 67.676628 41.529280 17.598317 -10.947652 28.963981 -0.444078 0.000000 0.000000 0.000000 
0.024929 0.973629 0.055078 -1.119277 13.557883 8.069288 8.029198 -0.758170 -10.360354 -2.845573 0.241580 -2.819849 4.615800 15.705730 23.972649 0.000000 0.000000 0.000000 -6.630679 0.413546 -11.546753 2.513895 -0.349513 -1.015604 -0.544703 -6.869428 27.727830 0.000000 0.000000 0.000000 2.443989 -2.426818 24.715745 -8.437963 2.862626 -21.445915 -2.992777 2.524660 27.543138 9.206903 -3.979878 -16.947836 0.000000 0.000000 0.000000 -7.827718 -22.219577 7.704800 -52.662984 -40.801642 9.297216 15.731728 -15.732153 -1.554998 0.000000 0.000000 0.000000 19.487574 7.743363 6.067444 67.417006 41.285958 17.315637 -11.086757 28.463895 -0.480706 0.000000 0.000000 0.000000 
0.025519 0.973401 0.054637 -1.075998 13.368217 8.129160 7.971682 -0.754427 -10.316867 -2.831763 0.243138 -2.991007 4.609545 15.689605 24.089728 0.000000 0.000000 0.000000 -6.695032 0.413038 -11.498310 2.573803 -0.356493 -1.063504 -0.599812 -6.885620 27.116530 0.000000 0.000000 0.000000 2.473342 -2.382023 24.399680 -8.340489 2.841557 -21.374174 -2.649805 2.744500 27.674319 9.189802 -3.938742 -17.006566 0.000000 0.000000 0.000000 -7.981509 -22.061128 7.634373 -52.623359 -40.406906 9.070080 15.434468 -16.079577 -1.554343 0.000000 0.000000 0.000000 19.531745 7.933547 6.213012 66.975417 41.148347 17.008095 -10.899596 28.465725 -0.449668 0.000000 0.000000 0.000000 
0.026081 0.973368 0.054083 -1.154971 13.086015 8.114579 7.977228 -0.746504 -10.270138 -2.727423 0.240786 -3.124199 4.727752 15.835381 24.394885 0.000000 0.000000 0.000000 -6.659799 0.423474 -11.362046 2.660826 -0.368309 -1.258762 -0.543604 -6.793293 26.694370 0.000000 0.000000 0.000000 2.547433 -2.326060 23.928508 -8.246452 2.847881 -20.860119 -2.341412 2.993840 27.502988 9.177908 -3.925576 -16.923687 0.000000 0.000000 0.000000 -7.971633 -21.628929 7.442478 -52.735706 -40.003156 8.894016 14.999925 -16.520071 -1.543459 0.000000 0.000000 0.000000 19.576545 8.057556 6.303672 66.650620 40.834325 16.661319 -10.809123 28.419438 -0.440121 0.000000 0.000000 0.000000 
0.026608 0.973568 0.053560 -1.100014 12.917542 8.108135 7.806552 -0.736424 -10.034633 -2.524128 0.234147 -3.426194 4.574560 15.635250 24.412745 0.000000 0.000000 0.000000 -6.702810 0.419545 -11.095884 2.617552 -0.367933 -1.694564 -0.504461 -6.755142 26.590194 0.000000 0.000000 0.000000 2.583501 -2.303380 23.758108 -8.304086 2.859143 -20.865907 -2.088602 3.279907 27.623628 9.393017 -4.015394 -17.110258 0.000000 0.000000 0.000000 -7.849905 -21.509895 7.363579 -52.733939 -39.241792 8.478429 14.837447 -16.802919 -1.556809 0.000000 0.000000 0.000000 19.701923 8.103481 6.397824 66.289319 40.472302 16.230941 -10.469155 28.746084 -0.367516 0.000000 0.000000 0.000000 
